# xmcd CD database file
#
# Track frame offsets:
#	150
#	16956
#	40716
#	59476
#	82267
#	102790
#	112327
#	130387
#	150456
#	168629
#	190941
#
# Disc length: 2799 seconds
#
# Revision: 0
# Processed by: cddbd v1.5.2PL0 Copyright (c) Steve Scherf et al.
# Submitted via: CDex 1.70beta2
#
DISCID=950aed0b
DTITLE=Hilary Watson - Passing By
DYEAR=2006
DGENRE=Blues
TTITLE0=Ruin Me
TTITLE1=By Faith
TTITLE2=Taste The Wine
TTITLE3=Passing By
TTITLE4=Proverbs 31
TTITLE5=Sing Praise
TTITLE6=What Kind of Love
TTITLE7=Where Burdens Lay
TTITLE8=Never So Lovely
TTITLE9=Calming Voice
TTITLE10=Goodnight
EXTD=YEAR: 2006
EXTT0=
EXTT1=
EXTT2=
EXTT3=
EXTT4=
EXTT5=
EXTT6=
EXTT7=
EXTT8=
EXTT9=
EXTT10=
PLAYORDER=
